<?xml version="1.0" encoding="utf-8"?>
<!-- Generator: Adobe Illustrator 26.0.3, SVG Export Plug-In . SVG Version: 6.00 Build 0)  -->
<svg version="1.1" id="Layer_1" xmlns="http://www.w3.org/2000/svg" xmlns:xlink="http://www.w3.org/1999/xlink" x="0px" y="0px"
	 viewBox="0 0 218.11 342.72" style="enable-background:new 0 0 218.11 342.72;" xml:space="preserve">
<style type="text/css">
	.st0{fill:#FFFFFF;}
</style>
<g>
	<path class="st0" d="M70.96,100.18c-1.95,0-3.57,0-5.67,0c0,11.28,0,22.35,0,33.42c0,5.64,0.33,11.31-0.2,16.9
		c-0.17,1.82-2.59,3.42-3.98,5.12c-1.27-1.65-3.63-3.29-3.65-4.95c-0.27-17.91-0.17-35.83-0.17-53.74c0-3.24,1.57-4.93,4.88-4.93
		c2.81,0,5.63,0,8.25,0c0.38-0.53,0.71-0.78,0.73-1.04c0.58-8.91,0.58-8.91,9.52-8.92c5,0,10,0.07,15-0.02
		c3.68-0.06,5.67,1.41,5.64,5.25c-0.04,4.64,0.34,9.33-0.2,13.91c-0.2,1.7-2.53,3.15-3.88,4.72c-1.31-1.61-3.42-3.08-3.74-4.87
		c-0.61-3.35-0.17-6.89-0.17-10.69c-4.68,0-9.07,0-13.74,0c0,22.24,0,44.41,0,66.96c4.29,0,8.68,0,13.73,0c0-8.31,0-16.7,0-25.09
		c0-4.31-0.39-8.68,0.18-12.91c0.26-1.92,2.43-3.58,3.74-5.36c1.36,1.73,3.86,3.43,3.9,5.19c0.33,13.76,1.54,27.69-0.1,41.26
		c-3.58,29.72-0.57,59.43-1.68,89.11c-0.27,7.14-0.6,7.71-7.67,7.72c-4,0.01-8.01-0.17-12,0.04c-4.79,0.25-6.46-1.86-6.43-6.52
		c0.12-26.54,1.68-53.21-0.42-79.58C70.94,147.58,72.54,124.05,70.96,100.18z M91.03,249.02c0-27.81,0-55.38,0-83.04
		c-3.33,0-6.38,0-9.38,0c0,27.9,0,55.48,0,83.04C84.95,249.02,87.89,249.02,91.03,249.02z"/>
	<path class="st0" d="M145.32,177.07c0,21.38,0.08,42.76-0.04,64.13c-0.05,8.41-6.21,15.05-14.26,15.94
		c-8.01,0.88-15.57-4.55-17.32-12.57c-0.38-1.76-0.36-3.62-0.37-5.43c-0.02-41.6-0.05-83.19,0.07-124.79
		c0.01-2.69,0.79-5.54,1.89-8.03c3.07-6.97,6.37-13.84,9.87-20.61c0.79-1.52,2.78-3.38,4.2-3.36c1.44,0.02,3.38,1.89,4.17,3.43
		c3.78,7.37,7.35,14.85,10.74,22.4c0.84,1.87,1.01,4.15,1.02,6.25C145.35,135.31,145.32,156.19,145.32,177.07z M121.65,118.11
		c0,36.58,0,72.77,0,108.85c5.4,0,10.46,0,15.41,0c0-36.47,0-72.55,0-108.85C131.89,118.11,126.95,118.11,121.65,118.11z
		 M121.48,235.5c-0.23,5.09-1.26,10.3,4.11,12.56c2.33,0.98,6.09,0.76,8.28-0.5c4.61-2.66,3.58-7.5,3.17-12.06
		C131.77,235.5,126.85,235.5,121.48,235.5z M136.17,109.67c-2.3-4.75-4.38-9.03-6.92-14.28c-2.54,5.38-4.56,9.69-6.73,14.28
		C127.39,109.67,131.45,109.67,136.17,109.67z"/>
</g>
</svg>
