<?xml version="1.0" encoding="utf-8"?>
<!-- Generator: Adobe Illustrator 26.0.3, SVG Export Plug-In . SVG Version: 6.00 Build 0)  -->
<svg version="1.1" id="Layer_1" xmlns="http://www.w3.org/2000/svg" xmlns:xlink="http://www.w3.org/1999/xlink" x="0px" y="0px"
	 viewBox="0 0 281.25 300.44" style="enable-background:new 0 0 281.25 300.44;" xml:space="preserve">
<style type="text/css">
	.st0{fill:#FFFFFF;}
</style>
<g>
	<path class="st0" d="M100.61,106.98c-0.72-3.56-1.46-6.57-1.91-9.62c-3.69-24.77,11.36-43.68,36.37-45.26
		c6.23-0.39,12.65-0.11,18.8,0.95c14.9,2.59,24.73,11.45,27.37,26.44c1.55,8.8,1.05,17.97,1.47,26.97c-0.47,0.02-0.93,0.05-1.4,0.07
		c0.27,0.18,0.52,0.49,0.8,0.51c10.87,0.94,11.46,1.59,11.46,12.72c0,4.32,0.11,8.64-0.06,12.94c-0.17,4.47-2.47,7.3-7.14,7.16
		c-3-0.09-3.83,1.21-4.6,3.83c-1.64,5.53-5.36,9.53-10.79,11.61c-3.15,1.2-6.53,2.02-6.89,6.11c-0.4,4.55,0.66,8.89,4.7,11.35
		c2.87,1.75,6.34,2.72,9.68,3.46c4.85,1.08,9.82,1.6,14.72,2.43c12.27,2.07,19.65,10.7,19.68,23.04c0.03,12.12,0.02,24.23,0,36.35
		c-0.01,7.49-2.76,10.41-10.04,10.42c-41.49,0.03-82.99,0.03-124.48,0c-7.1-0.01-9.95-2.9-9.97-9.98c-0.04-12.45-0.06-24.9,0-37.34
		c0.05-11.1,6.47-19.33,17.38-21.82c6.94-1.59,14.04-2.46,21.03-3.86c6.6-1.32,10.45-6,10.28-12.65c-0.05-1.76-1.05-3.64-2.01-5.22
		c-2.92-4.79-6.25-9.33-8.97-14.22c-1.27-2.27-2.28-3.82-5.15-3.44c-1.79,0.24-3.65,0.08-5.47,0.03c-5.34-0.14-7.55-2.18-7.73-7.56
		c-0.17-5.14-0.07-10.29-0.04-15.43c0.05-7.6,1.82-9.43,9.29-9.72C97.97,107.21,98.94,107.11,100.61,106.98z M101.38,243.9
		c26.34,0,52.12,0,78.4,0c0-4.06,0-7.84,0-11.62c0.01-10.91,4.76-15.65,15.78-15.75c4.23-0.04,8.46-0.01,13.04-0.01
		c0-5.11,0.01-9.4,0-13.69c-0.04-11.66-5.57-18.19-17.07-20.13c-5.23-0.88-10.44-2.02-15.71-2.43c-2.28-0.18-5.2,0.52-6.94,1.91
		c-10.2,8.16-21.08,13.9-34.7,11.32c-8.58-1.62-15.55-6.32-22.17-11.73c-1.27-1.04-3.21-2.1-4.67-1.9
		c-7.06,0.96-14.12,2.05-21.05,3.68c-6.78,1.59-11.96,5.89-12.94,12.91c-0.9,6.44-0.19,13.1-0.19,20.09c4.96,0,9.75-0.17,14.53,0.04
		c8.74,0.39,13.63,5.62,13.67,14.35C101.4,235.08,101.38,239.22,101.38,243.9z M163.91,82.52c-8.1,8.91-16.79,15.14-27.22,17.74
		c-10.15,2.53-20.67,3.59-31.66,5.39c0.46,6.93,0.67,14.86,1.57,22.7c2.04,17.79,11.15,30.51,28.03,37.15
		c7.79,3.07,20.83-1.66,24.58-8.77c-1.41,0-2.78,0.22-4.04-0.05c-2.43-0.52-5.77,1.79-7.14-2.18c2.46-0.67,4.9-1.86,7.37-1.91
		c10.9-0.21,11.77-0.66,15.98-10.82c0.63-1.52,1.36-3.09,1.54-4.7c1.08-9.36,1.94-18.74,3.05-28.09c0.37-3.09-0.39-5.22-2.89-7.26
		C167.48,97.14,164.03,91.24,163.91,82.52z M103.68,99.77c5.13,0,10.11,0.39,15.01-0.07c21.29-1.98,38.17-11.23,48.96-30.31
		c1.73-3.06,1.39-4.9-1.64-6.88c-9.24-6.06-19.5-7.07-30.06-6.28C111.81,58.03,98.48,75.74,103.68,99.77z M114.97,178.13
		c14.33,15.51,38.33,15.41,51.28-0.09c-2.63-4.69-5.12-9.13-7.85-14c-11.64,9.34-24.06,9-35.62,0.1
		C120.12,168.9,117.71,173.24,114.97,178.13z M208.59,221.05c-6.1,0-11.56-0.32-16.96,0.1c-4.2,0.33-7.14,3.1-7.46,7.4
		c-0.38,5.05-0.09,10.14-0.09,15.62c7.14,0,13.74,0.28,20.29-0.21c1.5-0.11,3.89-2.75,4.02-4.38
		C208.89,233.68,208.59,227.72,208.59,221.05z M72.72,221.3c0,6.5-0.22,12.75,0.17,18.96c0.09,1.37,2.32,3.64,3.66,3.72
		c6.69,0.39,13.42,0.18,20.57,0.18c0-5.44,0.23-10.36-0.07-15.25c-0.25-4.05-2.8-7.09-6.75-7.46C84.64,220.9,78.9,221.3,72.72,221.3
		z M178.21,135.66c2,0,3.97-0.19,5.89,0.04c3.97,0.48,5.38-1.16,5.14-5.06c-0.25-3.96-0.05-7.94-0.05-11.92
		c-0.01-7.58-1.06-8.33-8.99-6.26C179.55,119.95,178.91,127.51,178.21,135.66z M100.98,112.22c-8.45-1.41-8.89-1.06-8.9,6.86
		c0,2.48,0,4.96,0,7.44c0,9.91,0,9.91,9.91,9.03c0.31-0.03,0.59-0.26,1.01-0.44C102.33,127.47,101.65,119.8,100.98,112.22z
		 M178.04,99.71c0.8-10.72,0.62-20.65-5.36-30.06C165.76,82.65,167.56,92.83,178.04,99.71z"/>
	<path class="st0" d="M140.53,150.55c-3.93-2.25-7.36-4.07-10.59-6.19c-0.66-0.43-0.59-1.98-0.86-3.01
		c1.16-0.05,2.77-0.63,3.41-0.08c5.63,4.84,10.98,4.63,16.49-0.18c0.57-0.5,2.02,0.02,3.07,0.06c-0.18,1.03-0.01,2.6-0.6,2.99
		C148.08,146.34,144.52,148.26,140.53,150.55z"/>
	<path class="st0" d="M136.58,116.21c-0.85,0.53-1.97,1.7-2.49,1.48c-4.55-1.96-8.99-1.57-13.51,0.02
		c-0.44,0.16-1.59-0.64-1.82-1.23c-0.23-0.58,0.07-1.64,0.52-2.17c2.6-3.05,13.97-2.96,16.37,0.08
		C135.94,114.77,136.09,115.25,136.58,116.21z"/>
	<path class="st0" d="M153.75,111.48c2.54,0.77,5.1,1.36,7.48,2.38c0.72,0.3,0.94,1.77,1.39,2.7c-0.97,0.38-2.19,1.34-2.87,1.04
		c-4.03-1.73-7.9-1.69-11.94-0.02c-0.65,0.27-1.82-0.73-2.75-1.14c0.51-0.92,0.8-2.32,1.57-2.66
		C148.85,112.8,151.26,112.25,153.75,111.48z"/>
</g>
</svg>
