<?xml version="1.0" encoding="utf-8"?>
<!-- Generator: Adobe Illustrator 26.0.3, SVG Export Plug-In . SVG Version: 6.00 Build 0)  -->
<svg version="1.1" id="Layer_1" xmlns="http://www.w3.org/2000/svg" xmlns:xlink="http://www.w3.org/1999/xlink" x="0px" y="0px"
	 viewBox="0 0 361.25 311.87" style="enable-background:new 0 0 361.25 311.87;" xml:space="preserve">
<style type="text/css">
	.st0{fill:#FFFFFF;}
</style>
<g>
	<path class="st0" d="M171.55,267.98c-3.42-2.37-4.73-5.57-4.39-9.74c0.28-3.45,0.06-6.94,0.06-10.99c-1.87-0.08-3.6-0.22-5.34-0.22
		c-26.38-0.01-52.76,0-79.13-0.01c-10.06,0-13.81-3.7-13.71-13.82c0.09-9.28-0.23-18.62,0.78-27.81
		c1.64-15.03,9.97-26.02,22.91-33.57c10.28-6,20.6-11.92,30.8-17.82c-2.95-6.39-5.74-12.52-8.63-18.6
		c-0.39-0.82-1.18-1.51-1.92-2.09c-8.21-6.41-10.36-15.14-8.95-24.85c0.36-2.47,2.24-5.85,4.3-6.7c4.44-1.84,3.31-4.85,3.27-8.03
		c-0.08-7.26-0.71-14.61,0.22-21.75c1.54-11.77,8.28-18.16,19.74-20.62c2.06-0.44,4.1-1.21,6.01-2.12
		c19.96-9.42,53.59-7.79,68.95,16.51c3.13,4.96,5.17,10.67,7.23,16.22c0.7,1.88,0.56,4.78-0.49,6.32c-0.62,0.9-3.81,0.05-5.85-0.03
		c-0.47-0.02-0.95-0.11-2.36-0.28c2.78,5.16,1.43,11.09,7.79,14.66c4.9,2.75,4.13,9.13,3.42,14.21c-0.91,6.53-3.44,12.42-9.16,16.44
		c-1,0.7-1.85,1.85-2.38,2.97c-2.69,5.66-5.25,11.37-8.14,17.69c4.41,2.58,9.12,5.51,14.04,8.06c0.91,0.47,2.8-0.37,3.96-1.07
		c6.81-4.1,13.5-8.39,20.29-12.53c5.72-3.48,10.13-3.11,14.8,1.5c12.97,12.84,25.88,25.74,38.71,38.71
		c4.59,4.64,5.04,8.82,1.65,14.35c-6.84,11.16-13.75,22.27-20.78,33.3c-3.8,5.96-9.22,7.13-15.44,3.53
		c-6.4-3.71-12.72-7.58-19.44-11.59c-4.54,4.67-8.71,9.44-13.41,13.59c-2.32,2.05-5.66,2.91-8.48,4.43
		c-1.42,0.76-3.84,1.76-3.85,2.68c-0.07,7.14-4.53,8.92-9.07,9.03c-3.14,3.91-5.61,6.98-8.08,10.06
		C184.82,267.98,178.18,267.98,171.55,267.98z M180.45,232.3c3.72-3.48,7.5-6.91,11.16-10.47c6.14-5.98,12.2-12.03,18.3-18.07
		c-4.17-7.01-8.06-13.35-11.74-19.82c-3.3-5.8-2.07-10.92,3.22-14.74c1-0.72,1.97-1.49,3.32-2.5c-4.52-2.62-8.62-4.99-12.78-7.4
		c-8.77,9.73-18.3,17.43-31.93,17.47c-13.78,0.03-23.34-7.95-31.99-17.5c-11.63,6.77-23.04,13.15-34.18,19.98
		c-9.02,5.53-14.73,13.75-16.87,24.15c-0.79,3.85-1,7.89-0.94,11.84c0.14,7.87,0.65,15.72,1,23.58c7.84,0.42,15.68,1.14,23.52,1.2
		c21.73,0.17,43.46-0.29,65.17,0.25c7.18,0.18,11.43-2.7,14.9-8.16L180.45,232.3z M111.48,107.47c-2.27,7.6,0.44,16.96,5.01,19.98
		c1.97,1.3,3.99,3.33,4.8,5.48c4.42,11.67,10.41,22.24,20.34,30.08c12.17,9.61,25.16,9.43,37.2-0.39
		c9.52-7.77,15.52-17.93,19.65-29.36c0.7-1.92,1.67-4.24,3.23-5.26c6.84-4.48,9.58-11.97,6.72-20.26c-5.29,1.6-6.46-1.53-6.9-5.96
		c-0.29-2.93-1.09-5.85-1.98-8.67c-2.71-8.56-1.9-10.26,6.66-12.88c-5.77-15.78-16.53-25.72-33.32-28.43
		c-12.02-1.94-23.78-1.43-34.65,5.01c-0.96,0.57-2.13,1.04-3.22,1.08c-10.87,0.4-16.18,8.39-16.98,17.42
		c-0.51,5.75,0.02,11.59,0.06,17.39c0.02,3.44-0.08,6.89-0.01,10.33C118.18,107.63,115.91,108.94,111.48,107.47z M200.83,250.88
		c1.44-4.44,0.36-10.17,6.26-10.62c5.66-0.43,9.43-3.24,12.94-7.17c2.64-2.96,5.65-5.6,8.38-8.48c3.35-3.54,6.91-4.04,11.08-1.42
		c5.61,3.51,11.42,6.69,16.97,10.3c3.49,2.27,5.62,1.49,7.67-1.87c6.49-10.58,13.09-21.08,19.73-31.57c1.67-2.64,1.6-4.74-0.71-7.03
		c-12.71-12.6-25.36-25.26-37.96-37.97c-2.25-2.26-4.29-2.5-6.99-0.77c-10.47,6.66-20.98,13.26-31.57,19.72
		c-3.43,2.09-4.07,4.36-1.95,7.74c3.34,5.33,6.52,10.75,9.74,16.15c3.38,5.69,3.1,7.81-1.68,12.6
		c-11.12,11.14-21.95,22.61-33.53,33.25c-5.45,5.01-6.26,10.28-4.92,17.26c4.4,0,8.84,0.13,13.25-0.1c0.99-0.05,2.68-1.32,2.74-2.12
		C190.71,252.11,195.13,250.75,200.83,250.88z"/>
	<path class="st0" d="M139.62,80.31c-1.17,1.77-2.31,4.3-4.18,6.06c-1.38,1.3-3.7,1.58-5.61,2.32c0.01-2.06,0-4.11,0.06-6.17
		c0.01-0.28,0.35-0.55,0.53-0.83c6.92-10.84,7.36-11.04,18.86-5.64c10.1,4.74,20.71,6.78,31.81,6.61c1.66-0.03,3.48-0.42,4.93,0.12
		c1.58,0.59,2.82,2.09,4.21,3.19c-1.36,1.16-2.72,3.3-4.09,3.31c-6.78,0.01-13.73,0.27-20.3-1.09
		C157.18,86.38,148.82,83.14,139.62,80.31z"/>
	<path class="st0" d="M160.15,197.9c-0.96-0.28-1.64-0.36-2.22-0.65c-9.02-4.5-18.08-8.9-26.95-13.67
		c-1.15-0.62-1.27-3.14-1.86-4.77c1.75-0.32,3.87-1.43,5.2-0.82c7.51,3.42,14.75,7.44,22.27,10.83c1.9,0.86,4.83,0.88,6.73,0.03
		c7.08-3.16,13.92-6.85,20.87-10.31c2.4-1.2,5.2-2.7,6.84,0.66c1.52,3.13-1.28,4.25-3.53,5.38c-7.83,3.91-15.64,7.85-23.47,11.74
		C162.7,196.96,161.3,197.43,160.15,197.9z"/>
	<path class="st0" d="M110.83,226.25c0,1.15,0.4,2.52-0.09,3.4c-0.71,1.26-2.04,2.96-3.15,2.99c-1.13,0.03-3.07-1.58-3.3-2.75
		c-0.5-2.52-0.5-5.29,0.02-7.81c0.23-1.15,2.18-2.72,3.31-2.69c1.09,0.03,2.49,1.7,3.1,2.96
		C111.24,223.43,110.83,224.94,110.83,226.25z"/>
	<path class="st0" d="M156.62,225.78c0-1.15-0.4-2.53,0.09-3.4c0.71-1.26,2.04-2.94,3.15-2.97c1.15-0.04,3.01,1.48,3.37,2.68
		c0.6,1.97,0.73,4.37,0.15,6.32c-0.5,1.69-2.28,3-3.49,4.47c-1.11-1.54-2.33-3.02-3.28-4.66c-0.36-0.62-0.06-1.61-0.06-2.44
		C156.59,225.78,156.61,225.78,156.62,225.78z"/>
	<path class="st0" d="M128.52,227.24c-0.01,0.11,0.31,1.66-0.28,2.67c-0.72,1.22-2.25,2.78-3.36,2.73c-1.1-0.05-2.67-1.76-3.04-3.04
		c-0.53-1.82-0.6-4.03-0.06-5.83c0.51-1.69,2.07-3.07,3.17-4.59c1.19,1.47,2.49,2.86,3.51,4.44
		C128.83,224.2,128.52,225.23,128.52,227.24z"/>
	<path class="st0" d="M86.79,225.98c0-1.31-0.43-2.84,0.11-3.87c0.63-1.21,2.02-2.55,3.24-2.74c0.87-0.13,2.66,1.41,2.91,2.46
		c0.52,2.18,0.71,4.64,0.21,6.8c-0.36,1.57-2.03,2.84-3.12,4.25c-1.15-1.48-2.41-2.89-3.39-4.48c-0.37-0.6-0.06-1.6-0.06-2.42
		C86.73,225.98,86.76,225.98,86.79,225.98z"/>
	<path class="st0" d="M145.77,225.88c0,1.15,0.39,2.51-0.09,3.39c-0.76,1.37-2.11,2.42-3.22,3.61c-1.1-1.2-2.73-2.24-3.17-3.65
		c-0.56-1.8-0.56-4.01-0.03-5.82c0.45-1.57,1.97-2.83,3.02-4.23c1.17,1.42,2.45,2.76,3.44,4.29c0.37,0.58,0.06,1.6,0.06,2.42
		C145.78,225.88,145.78,225.88,145.77,225.88z"/>
	<path class="st0" d="M180.63,232.12c-5.49,1.29-6.54,0.62-6.31-5.06c0.12-2.86-1.98-7.75,3.34-7.67c4.86,0.07,2.69,4.72,3.06,7.48
		c0.23,1.77-0.15,3.62-0.26,5.43C180.45,232.3,180.63,232.12,180.63,232.12z"/>
	<path class="st0" d="M239.26,163.27c2.86,1.86,4.86,2.74,6.32,4.18c8.39,8.22,16.63,16.59,24.98,24.85
		c3.49,3.45,3.82,7.09,1.15,11.13c-1.18,1.79-2.17,3.73-3.48,5.41c-2.57,3.31-5.67,3.98-9.61,2.06
		c-14.18-6.92-24.49-17.63-31.35-31.7c-0.84-1.73-1.37-5.05-0.43-5.97C230.61,169.58,235.01,166.58,239.26,163.27z M266.26,199.1
		c-9.35-9.43-18.14-18.31-27.07-27.32c-1.79,1.15-3.85,2.46-5.65,3.62c5.79,13.86,15.53,23.36,29.2,29.3
		C263.95,202.77,265.24,200.73,266.26,199.1z"/>
</g>
</svg>
