<?xml version="1.0" encoding="utf-8"?>
<!-- Generator: Adobe Illustrator 26.0.3, SVG Export Plug-In . SVG Version: 6.00 Build 0)  -->
<svg version="1.1" id="Layer_1" xmlns="http://www.w3.org/2000/svg" xmlns:xlink="http://www.w3.org/1999/xlink" x="0px" y="0px"
	 viewBox="0 0 420.11 398.72" style="enable-background:new 0 0 420.11 398.72;" xml:space="preserve">
<style type="text/css">
	.st0{fill:#FFFFFF;}
</style>
<g>
	<path class="st0" d="M283.59,80.7c-57.94,0-115.65,0-173.57,0c0,71.04,0,142.01,0,213.15c57.76,0,115.47,0,173.57,0
		c0-0.87,0-1.75,0-2.62c0-4.66-0.06-9.32,0.03-13.97c0.06-3.34,2.37-5.67,5.41-5.67c3.03-0.01,5.38,2.32,5.42,5.67
		c0.08,7.32,0.08,14.64,0,21.96c-0.04,3.45-2.22,5.52-5.66,5.68c-0.58,0.03-1.16,0.01-1.75,0.01c-60.26,0-120.51,0-180.77,0
		c-5.9,0-7.51-1.62-7.51-7.58c0-73.45,0-146.89,0-220.34c0-5.94,1.61-7.55,7.53-7.55c60.26,0,120.51,0,180.77,0
		c5.69,0,7.41,1.74,7.41,7.46c0,36.1,0,72.2,0,108.3c0,0.33,0,0.67,0,1c-0.05,3.91-2.19,6.42-5.46,6.4
		c-3.28-0.02-5.41-2.51-5.41-6.44c-0.01-34.02-0.01-68.04-0.01-102.06C283.59,83,283.59,81.94,283.59,80.7z"/>
	<path class="st0" d="M384.03,155.91c-1.17,1.75-1.98,3.49-3.25,4.78c-22.71,23.03-45.83,45.68-68.1,69.13
		c-12.08,12.72-25.26,23.46-41.2,30.71c-1.37,0.62-3.26,0.83-4.69,0.45c-3.21-0.86-4.72-4.17-3.23-7.15
		c4.05-8.09,8.3-16.09,12.52-24.1c0.41-0.79,1.13-1.43,1.77-2.08c27.92-28.3,55.84-56.59,83.76-84.87
		c4.01-4.06,6.48-4.08,10.54-0.13c3.1,3.01,6.28,5.95,9.28,9.06C382.47,152.76,383.04,154.25,384.03,155.91z M367.06,152.84
		c-0.57,0.47-0.91,0.71-1.19,1c-26.76,27.22-53.54,54.42-80.22,81.71c-1.62,1.65-2.48,4.04-3.69,6.09c0.27,0.22,0.54,0.44,0.8,0.66
		c2.59-2.03,5.43-3.8,7.72-6.12c25.81-26.05,51.54-52.18,77.29-78.3c0.68-0.69,1.31-1.41,2.12-2.29
		C368.88,154.61,368.06,153.81,367.06,152.84z"/>
	<path class="st0" d="M196.75,227.59c-21.38,0-42.76,0-64.15,0c-4.41,0-5.71-1.26-5.72-5.59c-0.02-6.4-0.02-12.8,0-19.21
		c0.01-4.07,1.37-5.49,5.34-5.49c43.1-0.01,86.19-0.01,129.29,0c3.99,0,5.36,1.41,5.37,5.46c0.02,6.49,0.03,12.97,0,19.46
		c-0.02,3.91-1.53,5.37-5.49,5.37C239.84,227.6,218.3,227.59,196.75,227.59z M258.35,205.85c-41.14,0-81.96,0-122.89,0
		c0,4.59,0,9.02,0,13.48c41.06,0,81.94,0,122.89,0C258.35,214.76,258.35,210.38,258.35,205.85z"/>
	<path class="st0" d="M196.38,129.94c-21.22,0-42.43,0-63.65,0c-5.1,0-6.07-0.99-6.07-6.16c0-6.32-0.01-12.64,0.01-18.96
		c0.01-3.76,1.33-5.07,5.13-5.07c43.18-0.01,86.37-0.01,129.55,0c3.88,0,5.22,1.36,5.22,5.26c0.01,6.57,0.01,13.14,0,19.71
		c-0.01,3.87-1.35,5.21-5.28,5.21C239.64,129.94,218.01,129.94,196.38,129.94z M257.96,121.74c0-4.62,0-8.98,0-13.37
		c-41.02,0-81.88,0-122.68,0c0,4.59,0,8.94,0,13.37C176.25,121.74,216.99,121.74,257.96,121.74z"/>
	<path class="st0" d="M196.67,178.74c-21.47,0-42.93,0-64.4,0c-4.45,0-5.61-1.16-5.61-5.59c-0.01-6.24,0-12.47,0-18.71
		c0-4.81,1.06-5.89,5.84-5.89c28.29-0.01,56.58,0,84.87,0c14.48,0,28.95,0,43.43,0c4.59,0,5.77,1.18,5.77,5.73
		c0,6.4,0.01,12.81,0,19.21c-0.01,3.9-1.35,5.25-5.24,5.25C239.77,178.75,218.22,178.74,196.67,178.74z M258.01,157.07
		c-41.1,0-81.9,0-122.73,0c0,4.61,0,9.03,0,13.46c41.02,0,81.82,0,122.73,0C258.01,166,258.01,161.62,258.01,157.07z"/>
	<path class="st0" d="M211.69,261.53c0,3.9,0.04,7.81-0.01,11.71c-0.04,2.98-1.63,4.66-4.63,4.68c-7.89,0.06-15.79,0.06-23.68,0
		c-3.05-0.02-4.61-1.61-4.63-4.67c-0.05-7.89-0.05-15.78,0-23.67c0.02-3.07,1.57-4.57,4.65-4.58c7.89-0.04,15.79-0.04,23.68,0
		c3.13,0.01,4.57,1.46,4.61,4.57C211.72,253.55,211.69,257.54,211.69,261.53z M203.17,253.58c-5.56,0-10.82,0-16.33,0
		c0,5.09-0.03,9.98,0.05,14.87c0.01,0.45,0.68,1.27,1.06,1.28c5.04,0.09,10.08,0.06,15.22,0.06
		C203.17,264.21,203.17,258.99,203.17,253.58z"/>
	<path class="st0" d="M130.54,261.32c0-3.91-0.05-7.82,0.02-11.72c0.05-3.16,1.47-4.59,4.59-4.6c7.9-0.04,15.81-0.04,23.71,0
		c3.09,0.01,4.6,1.47,4.63,4.61c0.07,7.73,0.07,15.47,0,23.2c-0.03,3.48-1.82,5.12-5.34,5.13c-7.49,0.02-14.98,0.02-22.46,0
		c-3.71-0.01-5.11-1.42-5.15-5.13C130.51,268.97,130.54,265.15,130.54,261.32z M154.98,253.57c-5.46,0-10.79,0-16.16,0
		c0,5.46,0,10.72,0,16c5.5,0,10.83,0,16.16,0C154.98,264.13,154.98,258.93,154.98,253.57z"/>
	<path class="st0" d="M238.2,253.38c0,5.59,0,10.8,0,16.31c0.9,0.05,1.77,0.13,2.64,0.13c4.07,0.02,8.15-0.05,12.22,0.05
		c2.57,0.06,4.12,1.68,4.14,4.03c0.02,2.2-1.46,3.93-3.93,3.98c-6.4,0.12-12.8,0.12-19.2,0.01c-2.5-0.04-4-1.67-4.02-4.17
		c-0.06-8.22-0.06-16.45,0-24.67c0.02-2.52,1.56-4,4.12-4.02c6.15-0.07,12.3-0.06,18.45-0.01c2.54,0.02,4.2,1.59,4.35,3.88
		c0.15,2.35-1.5,4.27-4.08,4.43c-2.49,0.15-4.99,0.06-7.48,0.06C243.1,253.38,240.78,253.38,238.2,253.38z"/>
</g>
</svg>
