<?xml version="1.0" encoding="utf-8"?>
<!-- Generator: Adobe Illustrator 26.0.3, SVG Export Plug-In . SVG Version: 6.00 Build 0)  -->
<svg version="1.1" id="Layer_1" xmlns="http://www.w3.org/2000/svg" xmlns:xlink="http://www.w3.org/1999/xlink" x="0px" y="0px"
	 viewBox="0 0 466.11 412.72" style="enable-background:new 0 0 466.11 412.72;" xml:space="preserve">
<style type="text/css">
	.st0{fill:#FFFFFF;}
</style>
<g>
	<path class="st0" d="M436.38,114.94c-1.82,5.56-5.66,9.62-9.7,13.65c-59.8,59.73-119.58,119.48-179.3,179.29
		c-5.08,5.09-10.74,8.74-18.04,6.91c-3.75-0.94-7.74-2.95-10.47-5.65c-32.45-32.12-64.71-64.41-96.93-96.76
		c-8.29-8.33-8.14-18.82,0.13-27.23c7.78-7.92,15.64-15.77,23.56-23.56c8.73-8.58,19.02-8.52,27.76,0.18
		c18.62,18.55,37.19,37.15,55.75,55.75c0.95,0.95,1.7,2.12,2.77,3.48c1.52-1.45,2.57-2.41,3.57-3.41
		c47.56-47.54,95.13-95.07,142.63-142.67c5.11-5.12,10.84-8.56,18.12-6.61c3.63,0.97,7.35,3.04,10.11,5.61
		c8.22,7.64,16.14,15.62,23.83,23.8c2.61,2.77,4.17,6.52,6.22,9.82C436.38,110,436.38,112.47,436.38,114.94z"/>
	<path class="st0" d="M218.36,52.86c30.6,0,61.2-0.01,91.79,0.01c9.45,0.01,18.66,1.33,27.44,5.06c6.59,2.8,7.85,8.27,2.88,13.37
		c-3.18,3.27-6.44,6.47-9.69,9.67c-2.34,2.31-4.92,3.21-8.38,2.47c-3.94-0.84-8.05-1.23-12.09-1.24
		c-61.69-0.07-123.38,0.01-185.07-0.09c-15.98-0.03-27.68,6.71-35.16,20.77c-2.91,5.47-3.63,11.5-3.64,17.56
		c-0.04,61.94-0.07,123.87,0,185.81c0.02,18.65,10.27,32.51,27.35,37.14c3.4,0.92,7.07,1.17,10.62,1.18
		c62.18,0.07,124.37,0.02,186.55,0.07c15.86,0.01,27.67-6.89,34.41-21.1c2.44-5.14,3.36-11.37,3.51-17.14
		c0.44-17.76,0.23-35.53,0.1-53.3c-0.03-4,1.18-7.11,4.1-9.84c4.06-3.79,7.9-7.8,11.82-11.73c2.55-2.56,5.41-3.77,8.99-2.26
		c3.52,1.48,4.37,4.37,4.36,7.82c-0.1,25.29,0.25,50.59-0.39,75.87c-0.76,29.99-26.73,57.21-56.69,60.34
		c-3.55,0.37-7.14,0.62-10.71,0.63c-61.81,0.04-123.63-0.01-185.44,0.04c-26.06,0.02-45.68-11.31-59.23-33.33
		c-5.48-8.9-8.12-18.78-8.37-29.17c-0.28-11.71-0.14-23.44-0.15-35.16c-0.01-52.19-0.09-104.38,0.03-156.57
		c0.07-28.7,13.96-48.85,39.31-61.38c8.9-4.4,18.62-5.49,28.45-5.49C156.18,52.85,187.27,52.86,218.36,52.86z"/>
</g>
</svg>
