<svg id="Layer_1" data-name="Layer 1" xmlns="http://www.w3.org/2000/svg" viewBox="0 0 327.86 363.57"><defs><style>.cls-1{fill:#fff;}</style></defs><path class="cls-1" d="M57.14,132.66C32.72,175,48.24,239.36,75.25,278.35c13.48,19.5,27.13,37,45.83,37,.35,0,.7,0,1.06,0,8.79-.35,15.13-3.05,21.27-5.67,6.89-2.93,14-6,25.19-6,10.64,0,17.42,2.94,24,5.78s13.13,5.69,23,5.51c21.06-.39,34-19.28,45.4-35.94a159.44,159.44,0,0,0,19.89-40.74l.08-.25a2.38,2.38,0,0,0-1.26-2.91l-.17-.07c-3.71-1.52-36.24-15.95-36.58-55.28-.32-31.95,24.4-48.87,29.36-51.94l.23-.15a2.35,2.35,0,0,0,1-1.51,2.41,2.41,0,0,0-.37-1.81c-17.06-25-43.21-28.73-53.74-29.18a45.19,45.19,0,0,0-4.69-.23c-12.36,0-24.21,4.66-33.73,8.42-6.57,2.59-12.25,4.83-16.15,4.83-4.4,0-10.11-2.27-16.72-4.89-8.84-3.51-18.85-7.48-29.46-7.48h-.74C93.28,96.22,70,110.33,57.14,132.66Z"/><path class="cls-1" d="M219.45,26.47c-14.93.61-32.84,9.8-43.54,22.34-9.1,10.53-18,28.11-15.65,45.82a2.37,2.37,0,0,0,2.17,2.05q1.51.12,3.06.12c14.59,0,30.34-8.08,41.1-21.09,11.32-13.72,17-31.35,15.31-47.13A2.37,2.37,0,0,0,219.45,26.47Z"/></svg>