<svg id="Layer_1" data-name="Layer 1" xmlns="http://www.w3.org/2000/svg" viewBox="0 0 400.18 595.28"><defs><style>.cls-1{fill:#2a657e;}</style></defs><path class="cls-1" d="M58.73,297.14q0-93,0-186c0-15.45,5.67-27.83,20.05-34.57A42.53,42.53,0,0,1,96.1,72.83q92.73-.39,185.47-.12c22.75,0,37.56,14.92,37.57,37.72q.12,187.23,0,374.44c0,22.9-14.71,37.65-37.57,37.69q-92.49.18-185,0c-23.26,0-37.84-14.92-37.86-38.47Q58.66,390.62,58.73,297.14Zm10-3V446.61c0,6.49,0,6.5,6.5,6.5H302.68c6.5,0,6.51,0,6.51-6.49V141.16c0-6.49,0-6.5-6.5-6.5H75.22c-6.49,0-6.5,0-6.5,6.5ZM189,463.12h-7c-36,0-72,.06-107.95-.08-4,0-5.68.92-5.43,5.24.35,6,0,12,.13,18,.42,15.6,10.65,26.21,26.18,26.26q94,.24,187.92,0c15.56,0,25.83-10.6,26.28-26.16.17-5.82-.25-11.68.14-17.48.31-4.62-1.24-5.89-5.83-5.87C265.3,463.2,227.15,463.12,189,463.12Zm-.48-338.46H301c1.83,0,3.75.3,5.46-.15,1.07-.28,2.6-1.71,2.61-2.63,0-6.32.44-12.77-.66-18.93-2.23-12.53-12.62-20.24-26.54-20.25q-93-.11-185.91,0c-1,0-2,0-3,.13-13.29,1-22.93,10.41-24,23.73-.34,4.14.14,8.35-.29,12.48-.5,4.8,1.52,5.75,5.94,5.74C112.56,124.59,150.54,124.66,188.52,124.66Z"/><path class="cls-1" d="M287.17,364.08c0,4.5.1,9,0,13.49-.22,8.62-5.15,13.81-13.66,14q-14.47.3-29,0c-8.33-.18-13.35-5.2-13.52-13.54q-.28-14.49,0-29c.16-8.13,5.43-13.4,13.58-13.57q14.49-.31,29,0c8.13.18,13.31,5.51,13.56,13.64C287.29,354.09,287.16,359.09,287.17,364.08Zm-27.73-18.69c-4.49,0-9,.05-13.46,0-3.23,0-5,1.27-5,4.68q0,13.45,0,26.93c0,3.09,1.41,4.62,4.52,4.61,9,0,18,0,26.92,0,3.34,0,4.83-1.58,4.81-4.89q-.07-13.22,0-26.43c0-3.67-1.84-5-5.3-4.93C267.75,345.46,263.59,345.39,259.44,345.39Z"/><path class="cls-1" d="M90.73,203.46c0-4.66-.1-9.33,0-14,.21-8.44,5.37-13.83,13.72-14,9.66-.19,19.32-.21,29,0,8.15.2,13.29,5.51,13.45,13.71q.25,14.24,0,28.47c-.14,8.66-5.11,13.74-13.68,13.91q-14.47.28-29,0C96,231.39,91,226.21,90.76,218,90.61,213.12,90.74,208.29,90.73,203.46Zm46.21.22c0-4.49,0-9,0-13.47,0-3.35-1.56-4.83-4.88-4.81q-13.22.07-26.44,0c-3.28,0-4.93,1.42-4.92,4.78q0,13.47,0,26.94c0,3.14,1.61,4.52,4.64,4.51,9,0,18,0,26.94,0,3.42,0,4.73-1.74,4.67-5C136.89,212.32,137,208,136.94,203.68Z"/><path class="cls-1" d="M231,203.47c0-5-.17-10,0-15,.32-7.41,5.22-12.68,12.63-12.93q15.48-.5,31,0c7.25.25,12.3,5.75,12.46,13.11q.31,14.73,0,29.47c-.16,8-5.24,13.2-13.17,13.39q-14.73.36-29.48,0c-8.31-.17-13.19-5.24-13.47-13.6-.15-4.82,0-9.66,0-14.49ZM259,185.41c-4.32,0-8.64.08-13,0-3.57-.09-5.18,1.48-5.15,5.07q.1,13.22,0,26.43c0,3.41,1.64,4.77,4.91,4.76q13.22-.08,26.44,0c3.28,0,4.92-1.4,4.91-4.78q-.07-13.22,0-26.44c0-3.6-1.66-5.12-5.19-5C267.69,185.48,263.37,185.41,259,185.41Z"/><path class="cls-1" d="M119,311.61c-4.83,0-9.67.13-14.49,0-8.31-.27-13.51-5.25-13.68-13.44q-.3-14.73,0-29.47c.16-7.58,5.37-13,13-13.17,10-.28,20-.28,30,0,7.89.21,13,5.52,13.15,13.46q.3,14.49,0,29c-.17,8.36-5.15,13.32-13.46,13.62C128.62,311.75,123.79,311.6,119,311.61Zm-.13-46.21c-4.33,0-8.65.07-13,0-3.55-.08-5.19,1.49-5.16,5.07.07,8.82,0,17.63,0,26.44,0,3.4,1.68,4.77,4.94,4.75q13.21-.06,26.43,0c3.29,0,4.91-1.4,4.89-4.79q-.09-13.22,0-26.44c0-3.6-1.63-5.12-5.17-5C127.47,265.48,123.15,265.4,118.83,265.4Z"/><path class="cls-1" d="M287.16,283.39c0,4.83.13,9.67,0,14.49-.25,8.28-5.23,13.5-13.43,13.67q-14.73.33-29.48,0c-8-.2-13-5.23-13.2-13.32q-.33-14.73,0-29.47c.17-7.86,5.41-13.07,13.36-13.26q14.73-.36,29.47,0c7.82.2,13,5.59,13.26,13.42C287.29,273.73,287.16,278.56,287.16,283.39Zm-27.92,18.24c4.15,0,8.31-.09,12.46,0,3.69.1,5.57-1.27,5.52-5.22-.12-8.64-.08-17.29,0-25.93,0-3.55-1.54-5.16-5.11-5.13q-13,.11-25.94,0c-3.5,0-5.25,1.35-5.23,5q.1,13.22,0,26.44c0,3.35,1.5,4.87,4.83,4.83C250.26,301.58,254.75,301.62,259.24,301.63Z"/><path class="cls-1" d="M146.93,363.44c0,4.83.14,9.66,0,14.49-.27,8.36-5.15,13.43-13.45,13.61q-14.73.33-29.48,0c-7.94-.19-13-5.38-13.19-13.37q-.3-14.75,0-29.48c.17-7.58,5.37-13,13-13.18q15-.42,30,0c7.89.22,12.9,5.52,13.18,13.46C147.07,353.77,146.93,358.61,146.93,363.44Zm-10,0c0-4.32-.06-8.64,0-13,.07-3.54-1.45-5.19-5.06-5.15q-13,.12-25.94,0c-3.48,0-5.29,1.32-5.26,5q.08,13.21,0,26.44c0,3.33,1.51,4.87,4.84,4.86,8.81,0,17.62-.06,26.43,0,3.62,0,5.1-1.64,5-5.19C136.87,372.13,137,367.81,137,363.48Z"/><path class="cls-1" d="M216.93,203.49c0,4.83.13,9.66,0,14.49-.27,8.36-5.19,13.42-13.49,13.59q-14.49.31-29,0c-8.09-.17-13.18-5.14-13.38-13.16-.25-9.82-.22-19.66,0-29.48.17-7.92,5.33-13.23,13.21-13.43q14.74-.37,29.49,0c7.86.22,12.89,5.55,13.16,13.49C217.06,193.82,216.92,198.65,216.93,203.49Zm-10,0c0-4.33-.06-8.66,0-13,.07-3.5-1.32-5.22-5-5.18-8.66.11-17.33.09-26,0-3.29,0-5,1.26-5,4.67q0,13.48,0,27c0,3.09,1.34,4.61,4.5,4.6q13.48,0,27,0c3.15,0,4.53-1.51,4.5-4.6C206.9,212.54,206.94,208,206.94,203.54Z"/><path class="cls-1" d="M216.93,283.45c0,4.83.13,9.66,0,14.49-.27,8.37-5.17,13.45-13.46,13.62q-14.49.31-29,0c-8.29-.18-13.28-5.26-13.44-13.63q-.28-14.49,0-29c.17-8.12,5.47-13.33,13.68-13.49q14.23-.3,28.49,0c8.38.17,13.49,5.51,13.72,14C217,274.11,216.94,278.78,216.93,283.45Zm-46,0c0,4.5,0,9,0,13.49,0,3.05,1.23,4.7,4.42,4.69q13.5,0,27,0c3.12,0,4.6-1.4,4.59-4.53q-.06-13.5,0-27c0-3.36-1.58-4.78-4.92-4.75-8.83.08-17.66.06-26.49,0-3.15,0-4.58,1.5-4.57,4.56C171,274.45,171,279,171,283.45Z"/><path class="cls-1" d="M216.93,363.68c0,4.83.14,9.67,0,14.5-.3,8.07-5.17,13.16-13.2,13.35q-14.73.36-29.48,0c-8-.2-13-5.27-13.18-13.37q-.32-14.73,0-29.48c.19-7.83,5.51-13.06,13.41-13.23q14.49-.31,29,0c8.12.2,13.2,5.53,13.45,13.73C217.05,354,216.93,358.85,216.93,363.68Zm-28-18.29c-4.33,0-8.67.07-13,0-3.26-.07-5,1.21-5,4.65q0,13.5,0,27c0,3.08,1.33,4.63,4.49,4.62q13.5,0,27,0c3.16,0,4.53-1.51,4.52-4.6q-.06-13.5,0-27c0-3.4-1.68-4.75-5-4.68C197.63,345.46,193.3,345.39,189,345.39Z"/><path class="cls-1" d="M189,477.88a9.95,9.95,0,1,1-10,9.65A9.91,9.91,0,0,1,189,477.88Z"/><path class="cls-1" d="M172.41,98.94h25.48c3.51,0,6.64.89,6.65,5s-3.19,5-6.66,5q-25.73,0-51.45,0c-3.45,0-6.65-.9-6.62-5s3.09-5,6.63-5C155.1,99,163.76,98.94,172.41,98.94Z"/><path class="cls-1" d="M230.81,104.13a7.43,7.43,0,1,1-14.86-.42,7.43,7.43,0,0,1,14.86.42Z"/></svg>