<svg id="Layer_1" data-name="Layer 1" xmlns="http://www.w3.org/2000/svg" viewBox="0 0 841.89 595.28"><defs><style>.cls-1{fill:#2a657e;}</style></defs><path class="cls-1" d="M662,425.4c-.79,5.31-1.33,10.67-2.42,15.91-5.93,28.57-21.08,51.12-45,67.65-21,14.47-44.47,20.84-69.67,18.57-40.79-3.68-71-24-89.82-60.59a96.76,96.76,0,0,1-10.79-50.26c2.33-40.73,21.57-71.3,57.17-91.3a98,98,0,0,1,50.73-12.91c45.52,1.09,79.18,21.83,99.66,62.9a96.67,96.67,0,0,1,9.6,37.16,9.6,9.6,0,0,0,.58,2.06ZM540.61,460.53c-2.75-3.18-5.2-6.39-8-9.23-8.68-8.68-17.52-17.2-26.27-25.81-3.59-3.53-7.79-5.54-12.85-4.86-6,.81-10.42,4-12.37,9.93-2,6.1,0,11.17,4.42,15.5l44.72,43.73c6.68,6.53,15.36,6.66,22,.2,8-7.71,15.91-15.52,23.86-23.29q27.58-27,55.15-54c7.37-7.26,5.66-18.51-3.39-23.24-5.73-3-12.62-1.86-17.77,3.16Q587,415.12,564,437.7C556.54,445,549.05,452.3,540.61,460.53Z"/><path class="cls-1" d="M153.53,126.67c.44-2,.84-4.1,1.34-6.14,3.75-15,17.62-26.62,33.08-26.85,22.34-.34,44.69-.2,67-.21q182.56,0,365.12,0c12.37,0,23,3.88,31.51,13a32.53,32.53,0,0,1,9,22.73q.11,96.45,0,192.89c0,.58-.07,1.17-.14,2.23-3.84-3.67-6.94-7.58-10.9-10.2-6.6-4.36-8-9.94-8-17.58.36-51.58-.21-103.17.4-154.75.21-17.34-12.8-29.87-30-30.24-.84,0-1.69,0-2.54,0H203.39c-7.58,0-14.72,1.46-20.77,6.35a25.45,25.45,0,0,0-10,20.62q0,136.16,0,272.32A28.12,28.12,0,0,0,201,439.18q102.32,0,204.64-.06c3.3,0,4.55.75,4.85,4.26.4,4.58,1.72,9.08,2.73,14H189.87c-17.45,0-33.57-14.4-35.71-31.79a26.27,26.27,0,0,0-.63-2.73Z"/><path class="cls-1" d="M406.72,410.74c-21,1.52-41.84,3-62.7,4.58-19.52,1.52-38.93-.21-58.31-2-15.87-1.46-31.67-3.71-47.48-5.77-4.06-.53-8-1.65-12-2.58a6.86,6.86,0,0,1-5.24-5c-2.82-9-3.13-18.27-2.19-27.6.34-3.36.93-6.69,1.19-10.06.86-11.29,7.67-18.12,17.39-22.18A222,222,0,0,1,261.25,332c9.78-2.83,18.95-6.62,26.42-13.75,4.51-4.31,7-9.51,6.54-15.87a13.85,13.85,0,0,1,0-2.23c.57-7.48-2.1-13.62-8.23-17.84-7.69-5.3-11-13.15-13.44-21.57a8,8,0,0,0-4-5.17c-5.29-3.2-7.63-8.57-8.84-14.44a20.43,20.43,0,0,1,3.19-16,6.9,6.9,0,0,0,1.21-3.43,162,162,0,0,1,5-37,58.33,58.33,0,0,1,47.45-42.95c20.28-3,38.82,1.11,55.76,12.52,9.73,6.56,15.32,16.17,18.85,27.06a126.11,126.11,0,0,1,6,39.3,8.69,8.69,0,0,0,1.84,4.7c4,5.34,3.79,11.27,2.71,17.29-1.11,6.23-4,11.31-10.06,14.09-.77.35-1.29,1.57-1.63,2.5-.92,2.46-1.62,5-2.51,7.49a32.6,32.6,0,0,1-11.31,15.28c-8.36,6.4-11,16.34-8,26.53,2.51,8.31,8.29,13.74,16,17,6.59,2.77,13.51,4.76,20.3,7,1.46.49,2.64.76,2.63,2.82-.07,24.36,0,48.72-.05,73.08C407.06,408.9,406.94,409.3,406.72,410.74Z"/><path class="cls-1" d="M505.72,182.26q35.4,0,70.8,0c7,0,11.24,3.46,11.94,9.59A10.31,10.31,0,0,1,579.92,203a32.86,32.86,0,0,1-4.43.3q-69.86,0-139.71,0c-5.27,0-9.87-.93-12.18-6.48-2.7-6.48,1.19-13.63,8.16-14.32,4.3-.43,8.66-.26,13-.27q30.48,0,61,0Z"/><path class="cls-1" d="M505.54,257.08c-23.72,0-47.45-.08-71.17.05-7.43,0-10.25-3.95-11.28-7.7a10.7,10.7,0,0,1,9.78-13.37c.53,0,1.06,0,1.59,0H576.81c7.49,0,12.33,5.21,11.48,12.24a9.75,9.75,0,0,1-9.35,8.69c-7,.19-14,.12-21,.12H505.54Z"/><path class="cls-1" d="M452.89,290c6,0,12.07,0,18.11,0,7.07,0,11.86,4.48,11.8,10.91-.05,6.21-4.87,10.63-11.76,10.65q-18.44.06-36.85,0c-6.75,0-11.76-4.66-11.78-10.76s5-10.73,11.74-10.8c3.18,0,6.35,0,9.53,0Z"/></svg>