<svg id="Layer_1" data-name="Layer 1" xmlns="http://www.w3.org/2000/svg" viewBox="0 0 841.89 595.28"><defs><style>.cls-1{fill:#2a657e;}</style></defs><path class="cls-1" d="M303.84,352.78c-16.89-.84-32.45,4-47.62,10.75-24.13,10.73-48.33,21.32-72.46,32.05-3.23,1.43-6.42,2.3-9.87,1.14a10.69,10.69,0,0,1-7.48-9.67c-.29-4.87,2-8.69,6.62-10.9,7-3.31,13.94-6.73,21.06-9.75,23.94-10.13,47.77-20.54,72-30,15.12-5.88,31.26-6.2,47.37-5.28a121.38,121.38,0,0,1,30.38,5.48c15.38,4.94,28.82,13.21,39.22,25.53,6.71,7.95,14.59,13.14,24.57,15.49,4.72,1.1,9.41,2.35,14.07,3.67a7.39,7.39,0,0,0,6.4-1c20.9-13.12,41.7-26.42,62.87-39.11,15.11-9.06,31.54-12.61,49.07-8.43a47.22,47.22,0,0,1,20.31,10.81,4.42,4.42,0,0,0,4.95,1c16.16-5,31.4-2.95,45.48,6.52a32,32,0,0,1,5.88,5.47,3.07,3.07,0,0,0,4,1c7.36-2.55,14.89-4.14,22.77-3.76,18.27.9,32.48,15.26,32.12,32.79-.2,9.34-4.4,17.05-10.36,23.94-6.7,7.74-15,13.58-23.49,19.1q-75.78,49.09-151.6,98.15c-6.67,4.32-13.62,8.19-20.37,12.41-22.1,13.81-45.48,15.78-69.35,6-15.45-6.31-30.29-14.12-45.26-21.55-21.35-10.6-42.59-21.44-63.85-32.22-8.32-4.23-16.2-3.65-24,1.45-10,6.56-20.17,12.95-30.34,19.26-6.66,4.14-14.56,1.13-16.67-6.14a10.61,10.61,0,0,1,4.11-11.79c12-7.7,23.88-15.58,36.21-22.69,12.78-7.39,26.2-6.7,39.22-.37,16.43,8,32.65,16.37,49,24.56,17.81,8.93,35.47,18.16,53.52,26.58a90.73,90.73,0,0,0,21.85,6.45c11,2,21.39-1,30.79-6.8,22.1-13.54,44.24-27,66-41.05,38.2-24.61,76.16-49.58,114.18-74.47,6.24-4.09,12-8.82,16.1-15.22,5.17-8.13,1.08-16.19-8.63-16.09A58.38,58.38,0,0,0,626,379.06c-10.33,3.24-19.28,9.28-28.26,15.2q-47,30.93-94,61.68c-6.39,4.15-13.75,6.18-21.33,6.89-5.74.54-11.53.68-17.31.73-13.74.1-27.49-.24-41.23.12-25.1.66-49.57-3.39-73.84-9.15-2.91-.69-5.83-1.39-8.71-2.18-6.53-1.8-10-7.42-8.4-13.71,1.44-5.83,7.43-9.07,13.87-7.75,14.44,3,28.88,6,43.38,8.64,12.86,2.38,25.9,2.17,38.92,2.05,16-.14,32,0,48-.47,4.32-.12,8.74-1.48,12.86-3,5.82-2.1,8.72-6.58,8.77-12.9,0-6.15-2.78-10.43-8.16-13.14-6-3-12.4-3.79-18.95-3.8a280.09,280.09,0,0,1-42.91-3.08,183,183,0,0,1-42.82-12c-6.31-2.65-11.4-7-16.11-11.85-2.66-2.74-5.32-5.49-7.86-8.34-11-12.35-25.29-17.78-41.33-19.31C315,353.25,309.4,353.1,303.84,352.78Zm293.41,15.43c-2.34-1-4.13-2-6-2.67-9.4-3.2-18.18-1.18-26.37,3.74-11.59,7-23,14.18-34.51,21.3-5.94,3.68-11.86,7.38-17.3,10.77,2.64,5.86,5.12,11.35,7.7,17.06Zm-135.45,17,.3.88c3,0,5.95-.2,8.9,0,5.74.48,11.5,1,17.18,1.94a7.86,7.86,0,0,0,6-1.08c13.55-8.47,27.16-16.85,40.74-25.26,2.4-1.49,4.76-3,8-5.09-3.79-1.16-6.64-2.37-9.61-2.89-11.31-2-21.79,1-31.43,6.58-11.07,6.37-21.76,13.42-32.62,20.18Z"/><path class="cls-1" d="M340,69.07c2.2,1,4.62,1.66,6.57,3,8.3,5.78,16.5,11.72,24.66,17.7a3.81,3.81,0,0,0,4.46.44A106.91,106.91,0,0,1,386.34,86a3.64,3.64,0,0,0,2.71-3.24c1.7-9.55,3.47-19.08,5.15-28.63,1.42-8,5.06-11.12,13.3-11.1l29.76.09c7.27,0,11.42,3.51,12.55,10.6,1.53,9.57,3.09,19.15,4.52,28.74.36,2.38,1.25,3.75,3.7,4.51a64.94,64.94,0,0,1,9.41,3.93,3.72,3.72,0,0,0,4.45-.34c8.11-5.88,16.32-11.63,24.51-17.4,5.7-4,10.84-3.62,15.83,1.37Q523.41,85.66,534.47,97c4.34,4.41,4.78,9.75,1.19,14.88-5.92,8.46-11.86,16.91-17.91,25.28a3.78,3.78,0,0,0-.38,4.45,103.37,103.37,0,0,1,4.15,10.32,3.6,3.6,0,0,0,3.19,2.79c10,1.61,19.94,3.33,29.92,5,6.76,1.14,10.38,5.25,10.37,12.12q0,16-.25,31.93c-.08,6-3.64,10.08-9.59,11.13-10.36,1.83-20.74,3.53-31.08,5.47a4.82,4.82,0,0,0-2.9,2.45c-1.67,3.43-2.92,7.06-4.57,10.49a3.22,3.22,0,0,0,.33,3.87c6,8.28,11.89,16.63,17.79,25,4.08,5.77,3.68,10.9-1.27,15.82q-11.12,11-22.3,22c-4.89,4.77-10,5.14-15.63,1.19-8.27-5.84-16.57-11.63-24.75-17.59a4,4,0,0,0-4.76-.41,59.33,59.33,0,0,1-9.15,3.73c-2.65.77-3.43,2.35-3.82,4.8-1.56,9.78-3.25,19.54-4.94,29.3-1.08,6.24-5.27,9.81-11.58,9.82q-15.81,0-31.62-.11c-6.84-.07-10.88-3.73-12-10.52-1.65-10-3.38-19.94-5-29.91a3.63,3.63,0,0,0-2.68-3.29,91.17,91.17,0,0,1-10.3-4.21,4,4,0,0,0-4.74.37c-8,5.65-16.14,11.16-24.23,16.72-6.7,4.61-11.24,4.18-17-1.61q-10.49-10.56-21-21.14c-5.27-5.32-5.65-10.46-1.22-16.58,5.75-8,11.45-15.93,17.28-23.82a4,4,0,0,0,.47-4.75,64.05,64.05,0,0,1-4-9.72,4.39,4.39,0,0,0-4-3.47c-9.56-1.65-19.08-3.44-28.63-5.12-7.4-1.31-10.84-5.27-10.8-12.71q.1-15.66.33-31.31c.09-6.28,3.43-10.18,9.72-11.24q15.11-2.55,30.24-4.92a3.61,3.61,0,0,0,3.28-2.67c1.31-3.69,3.1-7.2,4.41-10.89a4.85,4.85,0,0,0-.29-3.8c-5.45-8.16-11.06-16.21-16.64-24.28-4.66-6.73-4.17-11.5,1.71-17.26Q320.57,84,331.25,73.41A14.16,14.16,0,0,1,340,69.07Zm-40.72,124c1.23.28,2.12.51,3,.68,8.72,1.6,17.44,3.25,26.18,4.78,5.32.92,8,4.19,9.76,9.14A196.18,196.18,0,0,0,347,229.1c2.71,5.49,2.64,10.09-1,15-5.16,6.84-10.06,13.88-15.15,20.77-1.17,1.58-1.43,2.67.23,4.13a75.44,75.44,0,0,1,6.53,6.61c1.38,1.55,2.42,1.63,4.14.41,7.41-5.24,14.95-10.32,22.42-15.5,4-2.79,8.25-3.31,12.51-.81a95.18,95.18,0,0,0,23.65,9.84c4.5,1.21,7.1,4.39,8,8.94.3,1.51.46,3.06.72,4.58,1.43,8.43,2.88,16.85,4.37,25.53,4.09,0,8-.1,11.92,0,1.94.07,2.7-.54,3-2.5,1.36-8.76,2.93-17.5,4.34-26.25.9-5.57,3.86-8.85,9.39-10.6a116.63,116.63,0,0,0,20-8c6.31-3.41,11.41-3.27,17.07,1.09,7.25,5.6,14.9,10.67,22.19,15.83l10.27-10.47c-5.52-7.78-11.16-15.8-16.87-23.76-3.17-4.43-3.1-8.69-.65-13.6a156.11,156.11,0,0,0,8.9-21c2-6,5.41-9.1,11.52-10,8.78-1.28,17.51-2.84,26.25-4.4.76-.14,1.94-1.1,2-1.71.17-4.3.09-8.62.09-13-1.11-.25-2-.48-2.92-.63-8.34-1.42-16.65-3-25-4.16-6.69-.91-9.87-4.65-11.72-10.93a93.49,93.49,0,0,0-7.62-18.85c-3.42-6.18-3.29-11.24,1-16.81,5.58-7.27,10.7-14.89,16-22.26L501.9,96.3c-7.65,5.43-15.58,11-23.46,16.67-4.32,3.1-8.51,3.09-13.33.77-7.31-3.52-14.8-6.75-22.42-9.52-5.18-1.87-8.05-5-8.85-10.35-1.25-8.37-2.68-16.7-3.89-25.07-.39-2.64-1.23-4-4.25-3.68A30.78,30.78,0,0,1,418,65c-2.76-.39-3.57.79-4,3.24-1.41,8.45-3,16.85-4.47,25.3-.94,5.59-4,8.69-9.49,10.52a211.34,211.34,0,0,0-22,9c-4.66,2.16-8.85,2.48-13.09-.61q-1.87-1.36-3.77-2.71l-20.89-15c-2.78,3-5.34,6-8.13,8.75-1.4,1.38-1.45,2.29-.32,3.88,5.24,7.43,10.33,15,15.48,22.45,2.86,4.17,2.68,8.25.54,12.82-3.49,7.44-6.65,15.05-9.56,22.74-1.82,4.82-4.69,7.81-9.87,8.6Q315,176,301.59,178.34a3.26,3.26,0,0,0-2.18,2.12C299.2,184.57,299.31,188.7,299.31,193.09Z"/><path class="cls-1" d="M420.79,242.77A55.46,55.46,0,1,1,476,187.34,55.31,55.31,0,0,1,420.79,242.77Zm-33.6-55.6a33.48,33.48,0,1,0,33.71-33.24A33.64,33.64,0,0,0,387.19,187.17Z"/></svg>