<svg id="Layer_1" data-name="Layer 1" xmlns="http://www.w3.org/2000/svg" viewBox="0 0 841.89 595.28"><defs><style>.cls-1{fill:#2a657e;}</style></defs><path class="cls-1" d="M499.31,154.52h-2.76q-39.26,0-78.52-.07c-38.09,0-76.19-.17-114.28.23-9.14.1-17.2,4.47-23.62,11.18-7.16,7.48-11.11,16.29-11.08,26.87.08,28.94,0,57.89,0,86.84q0,21.51.08,43v2.8h66.5l-47,85.69c-1.86-.94-3-.77-3.05,1.67-.12,4.44-2.43,8.17-4.42,11.92-4.78,9-9.74,17.87-14.66,26.78q-11.61,21.06-23.25,42.12c-1.77,3.22-3.51,6.46-5.72,10.52-32.84-59.75-65.34-118.89-98.17-178.61h66.5v-3.88c0-43.64-.16-87.28.12-130.92a94.5,94.5,0,0,1,5.1-29.13,102.31,102.31,0,0,1,43-54.89A98,98,0,0,1,284.36,94.1c4.35-1,8.84-1.37,13.27-2,3-.39,6-.75,8.95-.91a19.61,19.61,0,0,1,4.05.59,5.58,5.58,0,0,0,1.23.28c4.07-.28,8.14-.87,12.21-.88q85.79-.09,171.56,0c3.88,0,3.88,0,3.88,3.81q0,28,0,56C499.51,152.08,499.39,153.18,499.31,154.52Z"/><path class="cls-1" d="M489.34,269.54c1.43-2.9,2.45-5.15,3.63-7.3,5.95-10.85,12-21.68,17.93-32.52q8.33-15.14,16.61-30.29c3.49-6.41,6.81-12.92,10.32-19.32s7.18-12.53,10.66-18.87c6.64-12.11,13.17-24.29,19.8-36.41q8.21-15,16.55-29.93a2.84,2.84,0,0,1,1.88-1.46,2.89,2.89,0,0,1,1.9,1.44c5.89,10.47,11.78,20.94,17.54,31.48s11.3,21.17,17.07,31.69c7,12.78,14.24,25.44,21.25,38.21,5.07,9.25,9.88,18.65,14.93,27.9,4.49,8.21,9.17,16.3,13.72,24.46q5.07,9.11,10,18.27c1.12,2.1.62,2.65-2.17,2.65H621.89c-3.54,0-3.54,0-3.54,3.49,0,43.54.07,87.09-.08,130.63,0,5.45-1.58,10.88-1.72,16.34-.16,6.5-3.18,12.11-5,18-2.34,7.63-6.59,14.45-11.06,21.17-5.34,8-12.29,14.45-19.18,20.88A70.42,70.42,0,0,1,561.56,493c-1.88.83-3.62,2.05-5.55,2.67-6.76,2.15-13.49,4.5-20.39,6.09-13.3,3.07-26.89,2.12-40.39,2.13q-83.3,0-166.61,0c-3.63,0-3.64,0-3.64-3.64V447.65c0-5.87,1.12-7,6.88-7q94.32,0,188.63,0c7.9,0,14.33-3.35,20.18-8a42.17,42.17,0,0,0,12.5-16.24,21.46,21.46,0,0,0,1.86-8.24c.12-24.53,0-49.07,0-73.61q0-31,.13-61.94c0-2.53-.76-3.16-3.21-3.15-19.6.09-39.21.05-58.82.05Z"/></svg>